<svg width="500" height="200" viewBox="0 0 132.291 52.917" xmlns="http://www.w3.org/2000/svg">
   <defs>
      <path id="prefix__a" d="M258.668 727.158h82.152v74.381h-82.152z" />
   </defs>
   <g stroke="#ffffff" stroke-width="1.499" fill="none">
      <path
         d="M69.613 85.089l-4.951-12.777-7.544-9.454-2.83 2.555-4.95-8.943-3.3 1.533-4.244-6.388-4.716 8.177-3.3-2.811-2.593 8.177-7.78 6.132-5.187 14.054zM31.233 65.205v19.652"
         transform="matrix(1.02144 0 0 .98355 -12.89 -40.878)" />
      <path
         d="M23.383 71.482l.098.426 7.992 13.243M37.09 59.722L31.543 83.86l9.542-8.991.708-22.997M40.85 75.123l7.073 9.455zM45.962 57.862c-1.719 5.53-3.342 11.563-4.876 17.261M49.349 56.54l-1.227 28.554 6.332-19.757 9.778 7.115-6.583 12.56M48.091 84.424L64.4 72.034"
         transform="matrix(1.02144 0 0 .98355 -12.89 -40.878)" />
   </g>
   <g stroke-width=".062">
      <path
         d="M79.974 9.963v1.4q-2.9 0-4.948 1.998-2 2-2 5.048v13.145h6.998v1.4h-6.998v8.596h-1.599V18.41q0-3.7 2.499-6.048 2.5-2.4 6.048-2.4zm17.193 12.145q-2.2-2.2-4.848-2.2-2.649 0-4.698 2-2 2-2 4.648V41.55h-1.599V19.06h1.6v3.348q.9-1.7 2.798-2.799 1.9-1.1 4.249-1.1 2.349 0 4.498 1.6z"
         fill="#ffffff" stroke="#ffffff" transform="scale(.95412 1.04808)" />
      <path
         d="M103.665 19.11v22.44h-1.6V19.11zm-.8-5.499q-1.45 0-1.45-1.35 0-1.349 1.45-1.349t1.45 1.35q0 1.35-1.45 1.35zm9.696 5.498V41.55h-1.6V19.11zm-.8-5.498q-1.45 0-1.45-1.35 0-1.349 1.45-1.349t1.45 1.35q0 1.35-1.45 1.35z"
         fill="#ffffff" stroke="#ffffff" transform="scale(.95412 1.04808)" />
      <path d="M132.953 40.151v1.4H117.46l12.795-21.092H118.81v-1.4h14.294l-12.845 21.092z" fill="#ffffff" stroke="#ffffff"
         transform="scale(.95412 1.04808)" />
   </g>
</svg>