<svg width="1600.509" height="502.778" viewBox="0 0 480.153 150.833"><defs><linearGradient id="a" x1="14.915" x2="214.119" y1="14.167" y2="111.762" gradientTransform="matrix(4.44444 0 0 -4.44444 -33.009 535.8)" gradientUnits="userSpaceOnUse"/></defs><path d="M79.115 30C52.097 30 30 52.102 30 79.115v344.547c0 27.018 22.097 49.115 49.115 49.115h733.489c27.013 0 49.117-22.102 49.117-49.115v-81.156a33.9 33.9 0 0 1 9.927-23.969l40.428-40.426c11.29-11.284 11.257-29.587-.058-40.836L871.72 197.2c-6.4-6.36-10-15.017-10-24.039V79.115C861.72 52.102 839.617 30 812.604 30zm479.463 74.879c24.822 0 47.356 4.187 67.592 12.547 8.773 3.626 16.942 7.963 24.498 13.011 16.018 10.698 16.867 34.271 1.4 46.454-9.924 7.817-24.072 7.926-34.476.761q-24.569-16.92-55.778-16.92c-18.08 0-34.133 3.782-48.16 11.329-14.035 7.564-24.96 18.214-32.787 31.978q-11.738 20.641-11.736 47.35-.001 26.311 11.736 46.95c7.827 13.76 18.686 24.49 32.584 32.179q20.841 11.532 47.555 11.533 15.528-.001 29.355-3.649a28.88 28.88 0 0 0 20.21-19.257c1.03-3.29-1.49-6.64-4.938-6.64-18.831 0-33.953-15.87-32.717-34.964 1.129-17.422 16.374-30.6 33.836-30.6h32.37c.288 0 .568.034.853.043.288-.009.569-.043.853-.043h2.248c15.925 0 28.828 12.907 28.828 28.827v40.209c0 33.053-21.245 62.643-52.818 72.43l-.606.187c-20.24 6.204-40.613 9.31-61.115 9.31-29.413 0-55.852-6.27-79.328-18.822-23.475-12.547-41.888-29.947-55.244-52.209s-20.035-47.418-20.035-75.484c0-28.058 6.68-53.221 20.035-75.479 13.356-22.262 31.901-39.667 55.652-52.209 23.734-12.546 50.449-18.822 80.133-18.822m-416.473 4.855h6.524c9.707 0 18.902 4.35 25.049 11.862l107.267 131c8.01 9.786 23.868 4.12 23.868-8.524v-101.96c0-17.885 14.492-32.378 32.376-32.378 17.885 0 32.383 14.493 32.383 32.377v218.56c0 17.88-14.498 32.378-32.383 32.378h-6.136a32.39 32.39 0 0 1-25.028-11.83L198.342 250.086c-8.018-9.765-23.86-4.095-23.86 8.541v102.045c0 17.88-14.492 32.377-32.377 32.377-17.88 0-32.376-14.497-32.376-32.377v-218.56c0-17.885 14.496-32.378 32.376-32.378m607.1.002c18.107 0 32.783 14.675 32.783 32.782v217.746c0 18.106-14.676 32.783-32.783 32.783s-32.781-14.677-32.781-32.783V142.518c0-18.107 14.674-32.782 32.781-32.782" style="fill:url(#a);fill-opacity:1;stroke:none;stroke-width:4.44444" transform="matrix(.3 0 0 .3 0 0)"/><path d="M243.206 66.196v2.763l14.356 17.532.476-1.556h-14.61v3.493h18.326v-2.763l-14.356-17.531-.508 1.556h15.277v-3.494zM278.523 79.186h11.053v-3.398h-11.053zm.318-9.528h12.545v-3.462h-16.674v22.232h16.23v-3.462H278.84zM304.757 66.196v22.232h9.147q2.953 0 5.05-.953 2.127-.952 3.27-2.731t1.144-4.224q0-2.446-1.143-4.224-1.144-1.747-3.271-2.7-2.097-.92-5.05-.92h-6.86l1.842 1.873v-8.353zm14.546 0-5.622 8.067h4.415l5.653-8.067zm-10.417 7.908-1.842 1.97h6.67q2.73 0 4.096 1.175 1.398 1.175 1.398 3.271 0 2.128-1.398 3.271-1.365 1.144-4.097 1.144h-6.67l1.843 2.032zM347.156 65.879q-2.604 0-4.795.857-2.192.858-3.812 2.382-1.62 1.556-2.509 3.62-.889 2.097-.889 4.574t.89 4.542q.889 2.096 2.508 3.62 1.62 1.557 3.812 2.414t4.764.858q2.604 0 4.764-.858 2.191-.857 3.81-2.413 1.62-1.525 2.51-3.621.89-2.065.89-4.542t-.89-4.573q-.89-2.096-2.51-3.62t-3.81-2.383q-2.16-.857-4.733-.857m-.031 3.62q1.683 0 3.112.572t2.477 1.62q1.048 1.08 1.62 2.477.604 1.43.604 3.144t-.604 3.113q-.572 1.429-1.62 2.477-1.048 1.08-2.477 1.651-1.43.572-3.112.572-1.684 0-3.113-.572-1.397-.571-2.477-1.651-1.048-1.048-1.652-2.477-.571-1.398-.571-3.113 0-1.683.571-3.112.604-1.43 1.652-2.51 1.048-1.047 2.477-1.62 1.43-.57 3.113-.57" style="font-weight:600;font-size:31.76px;font-family:Montserrat;-inkscape-font-specification:&quot;Montserrat Semi-Bold&quot;;fill:#6f9aa8" transform="matrix(1.33333 0 0 -1.33333 -9.903 160.74)"/><path d="M254.21 34.81q-2.54 0-4.731.827-2.16.857-3.78 2.382-1.587 1.556-2.477 3.652t-.889 4.574.89 4.574 2.508 3.62q1.62 1.557 3.78 2.383 2.16.857 4.732.857 2.73 0 4.986-.953 2.254-.92 3.81-2.763l-2.667-2.509q-1.207 1.302-2.7 1.937-1.492.667-3.239.667t-3.208-.571q-1.429-.572-2.508-1.62-1.048-1.048-1.652-2.478-.572-1.429-.572-3.144t.572-3.144q.604-1.43 1.652-2.478 1.08-1.048 2.508-1.62 1.461-.571 3.208-.571t3.24.635q1.492.667 2.699 2l2.668-2.54q-1.557-1.81-3.811-2.763t-5.018-.953M283.08 34.81q-2.604 0-4.795.858t-3.81 2.383q-1.62 1.556-2.51 3.62-.889 2.097-.889 4.574t.89 4.542q.888 2.096 2.508 3.62 1.62 1.557 3.811 2.415 2.191.857 4.764.857 2.604 0 4.764-.857 2.191-.858 3.81-2.414 1.62-1.525 2.51-3.621.889-2.065.889-4.542t-.89-4.574-2.508-3.62-3.811-2.383q-2.16-.857-4.732-.857m-.031 3.622q1.683 0 3.112.571 1.43.572 2.477 1.62 1.048 1.08 1.62 2.478.603 1.429.603 3.144t-.603 3.113q-.572 1.429-1.62 2.477-1.048 1.08-2.477 1.652t-3.112.571-3.112-.571q-1.398-.572-2.478-1.652-1.048-1.048-1.651-2.477-.572-1.398-.572-3.113 0-1.683.572-3.113.603-1.429 1.651-2.509 1.048-1.048 2.478-1.62 1.429-.571 3.112-.571M304.757 35.128v22.234h9.147q2.953 0 5.05-.953 2.127-.953 3.27-2.732 1.144-1.778 1.144-4.224t-1.144-4.224q-1.143-1.747-3.27-2.7-2.097-.921-5.05-.921h-6.86l1.842 1.874v-8.354zm14.546 0-5.622 8.068h4.415l5.653-8.068zm-10.417 7.91-1.842 1.968h6.67q2.73 0 4.096 1.176 1.397 1.175 1.397 3.271 0 2.128-1.397 3.271-1.366 1.144-4.097 1.144h-6.67l1.843 2.033zM341.008 48.119h11.052v-3.398h-11.052zm.318-9.528h12.544v-3.463h-16.673v22.234h16.229V53.9h-12.1z" style="font-weight:600;font-size:31.76px;font-family:Montserrat;-inkscape-font-specification:&quot;Montserrat Semi-Bold&quot;;letter-spacing:7.875px;fill:#6f9aa8;stroke-width:1.68733" transform="matrix(1.33333 0 0 -1.33333 -9.903 160.74)"/><text x="240.162" y="-35.895" style="font-style:normal;font-variant:normal;font-weight:700;font-stretch:normal;font-size:20.01px;font-family:&quot;Montserrat SemiBold&quot;;-inkscape-font-specification:&quot;Montserrat SemiBold, Bold&quot;;font-variant-ligatures:normal;font-variant-caps:normal;font-variant-numeric:normal;font-feature-settings:normal;text-align:start;writing-mode:lr-tb;text-anchor:start;fill:#6f9aa8;fill-opacity:1;fill-rule:nonzero;stroke:none;stroke-width:1" transform="matrix(1.33333 0 0 1.33333 -9.903 160.74)"/><path d="M79.115 30C52.097 30 30 52.102 30 79.115v344.547c0 27.018 22.097 49.115 49.115 49.115h733.489c27.013 0 49.117-22.102 49.117-49.115v-81.156a33.9 33.9 0 0 1 9.927-23.969l40.428-40.426c11.29-11.284 11.257-29.587-.058-40.836L871.72 197.2c-6.4-6.36-10-15.017-10-24.039V79.115C861.72 52.102 839.617 30 812.604 30zm479.463 74.879c24.822 0 47.356 4.187 67.592 12.547 8.773 3.626 16.942 7.963 24.498 13.011 16.018 10.698 16.867 34.271 1.4 46.454-9.924 7.817-24.072 7.926-34.476.761q-24.569-16.92-55.778-16.92c-18.08 0-34.133 3.782-48.16 11.329-14.035 7.564-24.96 18.214-32.787 31.978q-11.738 20.641-11.736 47.35-.001 26.311 11.736 46.95c7.827 13.76 18.686 24.49 32.584 32.179q20.841 11.532 47.555 11.533 15.528-.001 29.355-3.649a28.88 28.88 0 0 0 20.21-19.257c1.03-3.29-1.49-6.64-4.938-6.64-18.831 0-33.953-15.87-32.717-34.964 1.129-17.422 16.374-30.6 33.836-30.6h32.37c.288 0 .568.034.853.043.288-.009.569-.043.853-.043h2.248c15.925 0 28.828 12.907 28.828 28.827v40.209c0 33.053-21.245 62.643-52.818 72.43l-.606.187c-20.24 6.204-40.613 9.31-61.115 9.31-29.413 0-55.852-6.27-79.328-18.822-23.475-12.547-41.888-29.947-55.244-52.209s-20.035-47.418-20.035-75.484c0-28.058 6.68-53.221 20.035-75.479 13.356-22.262 31.901-39.667 55.652-52.209 23.734-12.546 50.449-18.822 80.133-18.822m-416.473 4.855h6.524c9.707 0 18.902 4.35 25.049 11.862l107.267 131c8.01 9.786 23.868 4.12 23.868-8.524v-101.96c0-17.885 14.492-32.378 32.376-32.378 17.885 0 32.383 14.493 32.383 32.377v218.56c0 17.88-14.498 32.378-32.383 32.378h-6.136a32.39 32.39 0 0 1-25.028-11.83L198.342 250.086c-8.018-9.765-23.86-4.095-23.86 8.541v102.045c0 17.88-14.492 32.377-32.377 32.377-17.88 0-32.376-14.497-32.376-32.377v-218.56c0-17.885 14.496-32.378 32.376-32.378m607.1.002c18.107 0 32.783 14.675 32.783 32.782v217.746c0 18.106-14.676 32.783-32.783 32.783s-32.781-14.677-32.781-32.783V142.518c0-18.107 14.674-32.782 32.781-32.782" style="fill:url(#a);fill-opacity:1;stroke:none;stroke-width:4.44444" transform="matrix(.3 0 0 .3 0 0)"/><path d="M243.206 66.196v2.763l14.356 17.532.476-1.556h-14.61v3.493h18.326v-2.763l-14.356-17.531-.508 1.556h15.277v-3.494zM278.523 79.186h11.053v-3.398h-11.053zm.318-9.528h12.545v-3.462h-16.674v22.232h16.23v-3.462H278.84zM304.757 66.196v22.232h9.147q2.953 0 5.05-.953 2.127-.952 3.27-2.731t1.144-4.224q0-2.446-1.143-4.224-1.144-1.747-3.271-2.7-2.097-.92-5.05-.92h-6.86l1.842 1.873v-8.353zm14.546 0-5.622 8.067h4.415l5.653-8.067zm-10.417 7.908-1.842 1.97h6.67q2.73 0 4.096 1.175 1.398 1.175 1.398 3.271 0 2.128-1.398 3.271-1.365 1.144-4.097 1.144h-6.67l1.843 2.032zM347.156 65.879q-2.604 0-4.795.857-2.192.858-3.812 2.382-1.62 1.556-2.509 3.62-.889 2.097-.889 4.574t.89 4.542q.889 2.096 2.508 3.62 1.62 1.557 3.812 2.414t4.764.858q2.604 0 4.764-.858 2.191-.857 3.81-2.413 1.62-1.525 2.51-3.621.89-2.065.89-4.542t-.89-4.573q-.89-2.096-2.51-3.62t-3.81-2.383q-2.16-.857-4.733-.857m-.031 3.62q1.683 0 3.112.572t2.477 1.62q1.048 1.08 1.62 2.477.604 1.43.604 3.144t-.604 3.113q-.572 1.429-1.62 2.477-1.048 1.08-2.477 1.651-1.43.572-3.112.572-1.684 0-3.113-.572-1.397-.571-2.477-1.651-1.048-1.048-1.652-2.477-.571-1.398-.571-3.113 0-1.683.571-3.112.604-1.43 1.652-2.51 1.048-1.047 2.477-1.62 1.43-.57 3.113-.57" style="font-weight:600;font-size:31.76px;font-family:Montserrat;-inkscape-font-specification:&quot;Montserrat Semi-Bold&quot;;fill:#6f9aa8" transform="matrix(1.33333 0 0 -1.33333 -9.903 160.74)"/><path d="M254.21 34.81q-2.54 0-4.731.827-2.16.857-3.78 2.382-1.587 1.556-2.477 3.652t-.889 4.574.89 4.574 2.508 3.62q1.62 1.557 3.78 2.383 2.16.857 4.732.857 2.73 0 4.986-.953 2.254-.92 3.81-2.763l-2.667-2.509q-1.207 1.302-2.7 1.937-1.492.667-3.239.667t-3.208-.571q-1.429-.572-2.508-1.62-1.048-1.048-1.652-2.478-.572-1.429-.572-3.144t.572-3.144q.604-1.43 1.652-2.478 1.08-1.048 2.508-1.62 1.461-.571 3.208-.571t3.24.635q1.492.667 2.699 2l2.668-2.54q-1.557-1.81-3.811-2.763t-5.018-.953M283.08 34.81q-2.604 0-4.795.858t-3.81 2.383q-1.62 1.556-2.51 3.62-.889 2.097-.889 4.574t.89 4.542q.888 2.096 2.508 3.62 1.62 1.557 3.811 2.415 2.191.857 4.764.857 2.604 0 4.764-.857 2.191-.858 3.81-2.414 1.62-1.525 2.51-3.621.889-2.065.889-4.542t-.89-4.574-2.508-3.62-3.811-2.383q-2.16-.857-4.732-.857m-.031 3.622q1.683 0 3.112.571 1.43.572 2.477 1.62 1.048 1.08 1.62 2.478.603 1.429.603 3.144t-.603 3.113q-.572 1.429-1.62 2.477-1.048 1.08-2.477 1.652t-3.112.571-3.112-.571q-1.398-.572-2.478-1.652-1.048-1.048-1.651-2.477-.572-1.398-.572-3.113 0-1.683.572-3.113.603-1.429 1.651-2.509 1.048-1.048 2.478-1.62 1.429-.571 3.112-.571M304.757 35.128v22.234h9.147q2.953 0 5.05-.953 2.127-.953 3.27-2.732 1.144-1.778 1.144-4.224t-1.144-4.224q-1.143-1.747-3.27-2.7-2.097-.921-5.05-.921h-6.86l1.842 1.874v-8.354zm14.546 0-5.622 8.068h4.415l5.653-8.068zm-10.417 7.91-1.842 1.968h6.67q2.73 0 4.096 1.176 1.397 1.175 1.397 3.271 0 2.128-1.397 3.271-1.366 1.144-4.097 1.144h-6.67l1.843 2.033zM341.008 48.119h11.052v-3.398h-11.052zm.318-9.528h12.544v-3.463h-16.673v22.234h16.229V53.9h-12.1z" style="font-weight:600;font-size:31.76px;font-family:Montserrat;-inkscape-font-specification:&quot;Montserrat Semi-Bold&quot;;letter-spacing:7.875px;fill:#6f9aa8;stroke-width:1.68733" transform="matrix(1.33333 0 0 -1.33333 -9.903 160.74)"/><path d="M79.115 30C52.097 30 30 52.102 30 79.115v344.547c0 27.018 22.097 49.115 49.115 49.115h733.489c27.013 0 49.117-22.102 49.117-49.115v-81.156a33.9 33.9 0 0 1 9.927-23.969l40.428-40.426c11.29-11.284 11.257-29.587-.058-40.836L871.72 197.2c-6.4-6.36-10-15.017-10-24.039V79.115C861.72 52.102 839.617 30 812.604 30zm479.463 74.879c24.822 0 47.356 4.187 67.592 12.547 8.773 3.626 16.942 7.963 24.498 13.011 16.018 10.698 16.867 34.271 1.4 46.454-9.924 7.817-24.072 7.926-34.476.761q-24.569-16.92-55.778-16.92c-18.08 0-34.133 3.782-48.16 11.329-14.035 7.564-24.96 18.214-32.787 31.978q-11.738 20.641-11.736 47.35-.001 26.311 11.736 46.95c7.827 13.76 18.686 24.49 32.584 32.179q20.841 11.532 47.555 11.533 15.528-.001 29.355-3.649a28.88 28.88 0 0 0 20.21-19.257c1.03-3.29-1.49-6.64-4.938-6.64-18.831 0-33.953-15.87-32.717-34.964 1.129-17.422 16.374-30.6 33.836-30.6h32.37c.288 0 .568.034.853.043.288-.009.569-.043.853-.043h2.248c15.925 0 28.828 12.907 28.828 28.827v40.209c0 33.053-21.245 62.643-52.818 72.43l-.606.187c-20.24 6.204-40.613 9.31-61.115 9.31-29.413 0-55.852-6.27-79.328-18.822-23.475-12.547-41.888-29.947-55.244-52.209s-20.035-47.418-20.035-75.484c0-28.058 6.68-53.221 20.035-75.479 13.356-22.262 31.901-39.667 55.652-52.209 23.734-12.546 50.449-18.822 80.133-18.822m-416.473 4.855h6.524c9.707 0 18.902 4.35 25.049 11.862l107.267 131c8.01 9.786 23.868 4.12 23.868-8.524v-101.96c0-17.885 14.492-32.378 32.376-32.378 17.885 0 32.383 14.493 32.383 32.377v218.56c0 17.88-14.498 32.378-32.383 32.378h-6.136a32.39 32.39 0 0 1-25.028-11.83L198.342 250.086c-8.018-9.765-23.86-4.095-23.86 8.541v102.045c0 17.88-14.492 32.377-32.377 32.377-17.88 0-32.376-14.497-32.376-32.377v-218.56c0-17.885 14.496-32.378 32.376-32.378m607.1.002c18.107 0 32.783 14.675 32.783 32.782v217.746c0 18.106-14.676 32.783-32.783 32.783s-32.781-14.677-32.781-32.783V142.518c0-18.107 14.674-32.782 32.781-32.782" style="fill:url(#a);fill-opacity:1;stroke:none;stroke-width:4.44444" transform="matrix(.3 0 0 .3 0 0)"/><path d="M243.206 66.196v2.763l14.356 17.532.476-1.556h-14.61v3.493h18.326v-2.763l-14.356-17.531-.508 1.556h15.277v-3.494zM278.523 79.186h11.053v-3.398h-11.053zm.318-9.528h12.545v-3.462h-16.674v22.232h16.23v-3.462H278.84zM304.757 66.196v22.232h9.147q2.953 0 5.05-.953 2.127-.952 3.27-2.731t1.144-4.224q0-2.446-1.143-4.224-1.144-1.747-3.271-2.7-2.097-.92-5.05-.92h-6.86l1.842 1.873v-8.353zm14.546 0-5.622 8.067h4.415l5.653-8.067zm-10.417 7.908-1.842 1.97h6.67q2.73 0 4.096 1.175 1.398 1.175 1.398 3.271 0 2.128-1.398 3.271-1.365 1.144-4.097 1.144h-6.67l1.843 2.032zM347.156 65.879q-2.604 0-4.795.857-2.192.858-3.812 2.382-1.62 1.556-2.509 3.62-.889 2.097-.889 4.574t.89 4.542q.889 2.096 2.508 3.62 1.62 1.557 3.812 2.414t4.764.858q2.604 0 4.764-.858 2.191-.857 3.81-2.413 1.62-1.525 2.51-3.621.89-2.065.89-4.542t-.89-4.573q-.89-2.096-2.51-3.62t-3.81-2.383q-2.16-.857-4.733-.857m-.031 3.62q1.683 0 3.112.572t2.477 1.62q1.048 1.08 1.62 2.477.604 1.43.604 3.144t-.604 3.113q-.572 1.429-1.62 2.477-1.048 1.08-2.477 1.651-1.43.572-3.112.572-1.684 0-3.113-.572-1.397-.571-2.477-1.651-1.048-1.048-1.652-2.477-.571-1.398-.571-3.113 0-1.683.571-3.112.604-1.43 1.652-2.51 1.048-1.047 2.477-1.62 1.43-.57 3.113-.57" style="font-weight:600;font-size:31.76px;font-family:Montserrat;-inkscape-font-specification:&quot;Montserrat Semi-Bold&quot;;fill:#6f9aa8" transform="matrix(1.33333 0 0 -1.33333 -9.903 160.74)"/><path d="M254.21 34.81q-2.54 0-4.731.827-2.16.857-3.78 2.382-1.587 1.556-2.477 3.652t-.889 4.574.89 4.574 2.508 3.62q1.62 1.557 3.78 2.383 2.16.857 4.732.857 2.73 0 4.986-.953 2.254-.92 3.81-2.763l-2.667-2.509q-1.207 1.302-2.7 1.937-1.492.667-3.239.667t-3.208-.571q-1.429-.572-2.508-1.62-1.048-1.048-1.652-2.478-.572-1.429-.572-3.144t.572-3.144q.604-1.43 1.652-2.478 1.08-1.048 2.508-1.62 1.461-.571 3.208-.571t3.24.635q1.492.667 2.699 2l2.668-2.54q-1.557-1.81-3.811-2.763t-5.018-.953M283.08 34.81q-2.604 0-4.795.858t-3.81 2.383q-1.62 1.556-2.51 3.62-.889 2.097-.889 4.574t.89 4.542q.888 2.096 2.508 3.62 1.62 1.557 3.811 2.415 2.191.857 4.764.857 2.604 0 4.764-.857 2.191-.858 3.81-2.414 1.62-1.525 2.51-3.621.889-2.065.889-4.542t-.89-4.574-2.508-3.62-3.811-2.383q-2.16-.857-4.732-.857m-.031 3.622q1.683 0 3.112.571 1.43.572 2.477 1.62 1.048 1.08 1.62 2.478.603 1.429.603 3.144t-.603 3.113q-.572 1.429-1.62 2.477-1.048 1.08-2.477 1.652t-3.112.571-3.112-.571q-1.398-.572-2.478-1.652-1.048-1.048-1.651-2.477-.572-1.398-.572-3.113 0-1.683.572-3.113.603-1.429 1.651-2.509 1.048-1.048 2.478-1.62 1.429-.571 3.112-.571M304.757 35.128v22.234h9.147q2.953 0 5.05-.953 2.127-.953 3.27-2.732 1.144-1.778 1.144-4.224t-1.144-4.224q-1.143-1.747-3.27-2.7-2.097-.921-5.05-.921h-6.86l1.842 1.874v-8.354zm14.546 0-5.622 8.068h4.415l5.653-8.068zm-10.417 7.91-1.842 1.968h6.67q2.73 0 4.096 1.176 1.397 1.175 1.397 3.271 0 2.128-1.397 3.271-1.366 1.144-4.097 1.144h-6.67l1.843 2.033zM341.008 48.119h11.052v-3.398h-11.052zm.318-9.528h12.544v-3.463h-16.673v22.234h16.229V53.9h-12.1z" style="font-weight:600;font-size:31.76px;font-family:Montserrat;-inkscape-font-specification:&quot;Montserrat Semi-Bold&quot;;letter-spacing:7.875px;fill:#6f9aa8;stroke-width:1.68733" transform="matrix(1.33333 0 0 -1.33333 -9.903 160.74)"/><path d="M79.115 30C52.097 30 30 52.102 30 79.115v344.547c0 27.018 22.097 49.115 49.115 49.115h733.489c27.013 0 49.117-22.102 49.117-49.115v-81.156a33.9 33.9 0 0 1 9.927-23.969l40.428-40.426c11.29-11.284 11.257-29.587-.058-40.836L871.72 197.2c-6.4-6.36-10-15.017-10-24.039V79.115C861.72 52.102 839.617 30 812.604 30zm479.463 74.879c24.822 0 47.356 4.187 67.592 12.547 8.773 3.626 16.942 7.963 24.498 13.011 16.018 10.698 16.867 34.271 1.4 46.454-9.924 7.817-24.072 7.926-34.476.761q-24.569-16.92-55.778-16.92c-18.08 0-34.133 3.782-48.16 11.329-14.035 7.564-24.96 18.214-32.787 31.978q-11.738 20.641-11.736 47.35-.001 26.311 11.736 46.95c7.827 13.76 18.686 24.49 32.584 32.179q20.841 11.532 47.555 11.533 15.528-.001 29.355-3.649a28.88 28.88 0 0 0 20.21-19.257c1.03-3.29-1.49-6.64-4.938-6.64-18.831 0-33.953-15.87-32.717-34.964 1.129-17.422 16.374-30.6 33.836-30.6h32.37c.288 0 .568.034.853.043.288-.009.569-.043.853-.043h2.248c15.925 0 28.828 12.907 28.828 28.827v40.209c0 33.053-21.245 62.643-52.818 72.43l-.606.187c-20.24 6.204-40.613 9.31-61.115 9.31-29.413 0-55.852-6.27-79.328-18.822-23.475-12.547-41.888-29.947-55.244-52.209s-20.035-47.418-20.035-75.484c0-28.058 6.68-53.221 20.035-75.479 13.356-22.262 31.901-39.667 55.652-52.209 23.734-12.546 50.449-18.822 80.133-18.822m-416.473 4.855h6.524c9.707 0 18.902 4.35 25.049 11.862l107.267 131c8.01 9.786 23.868 4.12 23.868-8.524v-101.96c0-17.885 14.492-32.378 32.376-32.378 17.885 0 32.383 14.493 32.383 32.377v218.56c0 17.88-14.498 32.378-32.383 32.378h-6.136a32.39 32.39 0 0 1-25.028-11.83L198.342 250.086c-8.018-9.765-23.86-4.095-23.86 8.541v102.045c0 17.88-14.492 32.377-32.377 32.377-17.88 0-32.376-14.497-32.376-32.377v-218.56c0-17.885 14.496-32.378 32.376-32.378m607.1.002c18.107 0 32.783 14.675 32.783 32.782v217.746c0 18.106-14.676 32.783-32.783 32.783s-32.781-14.677-32.781-32.783V142.518c0-18.107 14.674-32.782 32.781-32.782" style="fill:url(#a);fill-opacity:1;stroke:none;stroke-width:4.44444" transform="matrix(.3 0 0 .3 0 0)"/><path d="M243.206 66.196v2.763l14.356 17.532.476-1.556h-14.61v3.493h18.326v-2.763l-14.356-17.531-.508 1.556h15.277v-3.494zM278.523 79.186h11.053v-3.398h-11.053zm.318-9.528h12.545v-3.462h-16.674v22.232h16.23v-3.462H278.84zM304.757 66.196v22.232h9.147q2.953 0 5.05-.953 2.127-.952 3.27-2.731t1.144-4.224q0-2.446-1.143-4.224-1.144-1.747-3.271-2.7-2.097-.92-5.05-.92h-6.86l1.842 1.873v-8.353zm14.546 0-5.622 8.067h4.415l5.653-8.067zm-10.417 7.908-1.842 1.97h6.67q2.73 0 4.096 1.175 1.398 1.175 1.398 3.271 0 2.128-1.398 3.271-1.365 1.144-4.097 1.144h-6.67l1.843 2.032zM347.156 65.879q-2.604 0-4.795.857-2.192.858-3.812 2.382-1.62 1.556-2.509 3.62-.889 2.097-.889 4.574t.89 4.542q.889 2.096 2.508 3.62 1.62 1.557 3.812 2.414t4.764.858q2.604 0 4.764-.858 2.191-.857 3.81-2.413 1.62-1.525 2.51-3.621.89-2.065.89-4.542t-.89-4.573q-.89-2.096-2.51-3.62t-3.81-2.383q-2.16-.857-4.733-.857m-.031 3.62q1.683 0 3.112.572t2.477 1.62q1.048 1.08 1.62 2.477.604 1.43.604 3.144t-.604 3.113q-.572 1.429-1.62 2.477-1.048 1.08-2.477 1.651-1.43.572-3.112.572-1.684 0-3.113-.572-1.397-.571-2.477-1.651-1.048-1.048-1.652-2.477-.571-1.398-.571-3.113 0-1.683.571-3.112.604-1.43 1.652-2.51 1.048-1.047 2.477-1.62 1.43-.57 3.113-.57" style="font-weight:600;font-size:31.76px;font-family:Montserrat;-inkscape-font-specification:&quot;Montserrat Semi-Bold&quot;;fill:#6f9aa8" transform="matrix(1.33333 0 0 -1.33333 -9.903 160.74)"/><path d="M254.21 34.81q-2.54 0-4.731.827-2.16.857-3.78 2.382-1.587 1.556-2.477 3.652t-.889 4.574.89 4.574 2.508 3.62q1.62 1.557 3.78 2.383 2.16.857 4.732.857 2.73 0 4.986-.953 2.254-.92 3.81-2.763l-2.667-2.509q-1.207 1.302-2.7 1.937-1.492.667-3.239.667t-3.208-.571q-1.429-.572-2.508-1.62-1.048-1.048-1.652-2.478-.572-1.429-.572-3.144t.572-3.144q.604-1.43 1.652-2.478 1.08-1.048 2.508-1.62 1.461-.571 3.208-.571t3.24.635q1.492.667 2.699 2l2.668-2.54q-1.557-1.81-3.811-2.763t-5.018-.953M283.08 34.81q-2.604 0-4.795.858t-3.81 2.383q-1.62 1.556-2.51 3.62-.889 2.097-.889 4.574t.89 4.542q.888 2.096 2.508 3.62 1.62 1.557 3.811 2.415 2.191.857 4.764.857 2.604 0 4.764-.857 2.191-.858 3.81-2.414 1.62-1.525 2.51-3.621.889-2.065.889-4.542t-.89-4.574-2.508-3.62-3.811-2.383q-2.16-.857-4.732-.857m-.031 3.622q1.683 0 3.112.571 1.43.572 2.477 1.62 1.048 1.08 1.62 2.478.603 1.429.603 3.144t-.603 3.113q-.572 1.429-1.62 2.477-1.048 1.08-2.477 1.652t-3.112.571-3.112-.571q-1.398-.572-2.478-1.652-1.048-1.048-1.651-2.477-.572-1.398-.572-3.113 0-1.683.572-3.113.603-1.429 1.651-2.509 1.048-1.048 2.478-1.62 1.429-.571 3.112-.571M304.757 35.128v22.234h9.147q2.953 0 5.05-.953 2.127-.953 3.27-2.732 1.144-1.778 1.144-4.224t-1.144-4.224q-1.143-1.747-3.27-2.7-2.097-.921-5.05-.921h-6.86l1.842 1.874v-8.354zm14.546 0-5.622 8.068h4.415l5.653-8.068zm-10.417 7.91-1.842 1.968h6.67q2.73 0 4.096 1.176 1.397 1.175 1.397 3.271 0 2.128-1.397 3.271-1.366 1.144-4.097 1.144h-6.67l1.843 2.033zM341.008 48.119h11.052v-3.398h-11.052zm.318-9.528h12.544v-3.463h-16.673v22.234h16.229V53.9h-12.1z" style="font-weight:600;font-size:31.76px;font-family:Montserrat;-inkscape-font-specification:&quot;Montserrat Semi-Bold&quot;;letter-spacing:7.875px;fill:#6f9aa8;stroke-width:1.68733" transform="matrix(1.33333 0 0 -1.33333 -9.903 160.74)"/><path d="M133.094 96.892q-10.02 0-18.03-4.235-8.015-4.233-12.522-11.747-4.508-7.513-4.508-16.983 0-9.472 4.508-16.984 4.507-7.513 12.43-11.747 7.922-4.235 17.849-4.235 6.92.001 13.75 2.095l.137.042c7.104 2.202 11.884 8.86 11.884 16.297v9.047a6.486 6.486 0 0 1-6.486 6.486h-.506c-.064 0-.127-.008-.192-.01-.064.002-.127.01-.192.01h-7.283c-3.929 0-7.36-2.965-7.613-6.885a7.377 7.377 0 0 1 7.361-7.867c.776 0 1.343-.754 1.111-1.494a6.5 6.5 0 0 0-4.547-4.333q-3.111-.82-6.605-.82-6.01 0-10.7 2.594-4.69 2.595-7.331 7.24t-2.64 10.564q0 6.01 2.64 10.654t7.377 7.195q4.734 2.548 10.836 2.549 7.022 0 12.55-3.807c2.341-1.612 5.524-1.588 7.757.171 3.48 2.741 3.29 8.045-.315 10.452a31.7 31.7 0 0 1-5.512 2.928q-6.83 2.822-15.208 2.823m-93.706-1.093a7.285 7.285 0 0 1-7.285-7.284V39.339a7.285 7.285 0 0 1 14.57 0v22.96c0 2.843 3.564 4.118 5.368 1.921L76.27 34.716a7.29 7.29 0 0 1 5.63-2.662h1.381a7.286 7.286 0 0 1 7.287 7.285v49.176a7.285 7.285 0 0 1-7.287 7.284 7.284 7.284 0 0 1-7.284-7.284V65.573c0-2.845-3.568-4.12-5.37-1.917L46.49 93.13a7.28 7.28 0 0 1-5.636 2.668zm136.597 0a7.375 7.375 0 0 1-7.376-7.376V39.43a7.376 7.376 0 1 1 14.752 0v48.993a7.376 7.376 0 0 1-7.376 7.376" style="fill:#fff;fill-opacity:1;stroke:none;stroke-width:.999998" transform="matrix(1.33333 0 0 -1.33333 -9.903 160.74)"/></svg>