<svg width="500" height="200" viewBox="0 0 132.291 52.917" xmlns="http://www.w3.org/2000/svg">
   <g stroke-width=".062">
      <path
         d="M79.974 9.963v1.4q-2.9 0-4.948 1.998-2 2-2 5.048v13.145h6.998v1.4h-6.998v8.596h-1.599V18.41q0-3.7 2.499-6.048 2.5-2.4 6.048-2.4zm17.193 12.145q-2.2-2.2-4.848-2.2-2.649 0-4.698 2-2 2-2 4.648V41.55h-1.599V19.06h1.6v3.348q.9-1.7 2.798-2.799 1.9-1.1 4.249-1.1 2.349 0 4.498 1.6z"
         fill="#fafdff" stroke="#fafdff" transform="matrix(.95412 0 0 1.04808 -16.058 -.973)" />
      <path
         d="M103.665 19.11v22.44h-1.6V19.11zm-.8-5.499q-1.45 0-1.45-1.35 0-1.349 1.45-1.349t1.45 1.35q0 1.35-1.45 1.35zm9.696 5.498V41.55h-1.6V19.11zm-.8-5.498q-1.45 0-1.45-1.35 0-1.349 1.45-1.349t1.45 1.35q0 1.35-1.45 1.35z"
         fill="#1099c3" stroke="#1099c3" transform="matrix(.95412 0 0 1.04808 -16.058 -.973)" />
      <path d="M132.953 40.151v1.4H117.46l12.795-21.092H118.81v-1.4h14.294l-12.845 21.092z" fill="#fafdff" stroke="#fafdff"
         transform="matrix(.95412 0 0 1.04808 -16.058 -.973)" />
   </g>
   <g fill="#fafdff" stroke-width="2.007" stroke-linecap="round">
      <path d="M11.425 18.145L39.511 33.64M11.425 33.64l28.086-15.495M25.32 25.892v15.495" stroke="#fafdff" />
      <path d="M25.32 10.398v8.123" stroke="#1099c3" />
   </g>
</svg>