<svg xmlns="http://www.w3.org/2000/svg" style="fill-rule:evenodd;clip-rule:evenodd;stroke-linejoin:round;stroke-miterlimit:2"><path d="M211.345 190.214a8.834 8.834 0 0 1-9.858 6.513c-22.854-3.548-44.571-15.066-60.591-34.158-35.111-41.843-29.645-104.32 12.199-139.431s104.32-29.645 139.431 12.198c16.02 19.092 23.592 42.479 23.117 65.603a8.83 8.83 0 0 1-8.126 8.575 110 110 0 0 0-12.032 1.727 8.817 8.817 0 0 1-10.578-9.031c.798-16.564-4.394-33.46-15.884-47.152-24.226-28.872-67.335-32.644-96.207-8.418-28.872 24.227-32.644 67.336-8.417 96.208 11.489 13.693 27.226 21.74 43.677 23.832a8.82 8.82 0 0 1 6.454 4.269 8.82 8.82 0 0 1 .602 7.714 110 110 0 0 0-3.787 11.551" style="fill:#74aa00"/><path d="M211.306 68.301c16.918-2.983 33.074 8.33 36.057 25.247s-8.33 33.074-25.247 36.057-33.074-8.33-36.057-25.248 8.33-33.073 25.247-36.056"/><path d="M224.072 211.345a8.833 8.833 0 0 1-6.513-9.858c3.547-22.854 15.066-44.571 34.158-60.591 41.843-35.111 104.32-29.645 139.431 12.199s29.645 104.32-12.199 139.431c-19.091 16.02-42.479 23.592-65.602 23.117a8.833 8.833 0 0 1-8.576-8.126 110 110 0 0 0-1.726-12.032 8.817 8.817 0 0 1 9.031-10.578c16.564.798 33.459-4.394 47.152-15.884 28.872-24.226 32.644-67.335 8.417-96.207s-67.335-32.644-96.207-8.417c-13.693 11.489-21.74 27.226-23.833 43.677a8.817 8.817 0 0 1-11.982 7.056 110 110 0 0 0-11.551-3.787" style="fill:#74aa00"/><path d="M345.985 211.306c2.983 16.918-8.33 33.074-25.247 36.057s-33.074-8.33-36.057-25.247 8.33-33.074 25.247-36.057 33.074 8.33 36.057 25.247"/><path d="M202.941 224.072a8.83 8.83 0 0 1 9.857-6.513c22.855 3.547 44.572 15.066 60.592 34.158 35.11 41.843 29.644 104.32-12.199 139.431s-104.32 29.645-139.431-12.199c-16.02-19.091-23.593-42.479-23.117-65.602a8.83 8.83 0 0 1 8.126-8.576c4.029-.352 8.046-.927 12.032-1.726a8.815 8.815 0 0 1 10.577 9.031c-.798 16.564 4.395 33.459 15.884 47.152 24.227 28.872 67.336 32.644 96.208 8.417s32.643-67.335 8.417-96.207c-11.49-13.693-27.227-21.74-43.678-23.833a8.813 8.813 0 0 1-7.055-11.982 110 110 0 0 0 3.787-11.551" style="fill:#74aa00"/><path d="M202.979 345.985c-16.917 2.983-33.073-8.33-36.056-25.247s8.329-33.074 25.247-36.057 33.074 8.33 36.057 25.247-8.33 33.074-25.248 36.057"/><path d="M190.214 202.941a8.833 8.833 0 0 1 6.513 9.857c-3.548 22.855-15.066 44.572-34.158 60.592-41.843 35.11-104.32 29.644-139.431-12.199S-6.507 156.871 35.336 121.76c19.092-16.02 42.479-23.593 65.603-23.117a8.83 8.83 0 0 1 8.575 8.126 110 110 0 0 0 1.727 12.032 8.815 8.815 0 0 1-9.031 10.577c-16.564-.798-33.46 4.395-47.152 15.884-28.872 24.227-32.644 67.336-8.418 96.208 24.227 28.872 67.336 32.643 96.208 8.417 13.693-11.49 21.74-27.227 23.832-43.678a8.817 8.817 0 0 1 11.983-7.055 110 110 0 0 0 11.551 3.787" style="fill:#74aa00"/><path d="M68.301 202.979c-2.983-16.917 8.33-33.073 25.247-36.056s33.074 8.329 36.057 25.247-8.33 33.074-25.248 36.057-33.073-8.33-36.056-25.248"/><path d="M467.416 259.709q-2.57 0-4.368-1.799t-1.798-4.367V132.284q0-2.57 1.798-4.368t4.368-1.798h21.066q2.569 0 4.367 1.798t1.799 4.368v10.533q6.679-8.221 17.084-13.745t25.819-5.523q15.671 0 27.232 7.065t17.855 19.91 6.294 30.829v72.19q0 2.569-1.798 4.367t-4.368 1.799h-22.607q-2.57 0-4.368-1.799t-1.798-4.367v-70.649q0-14.901-7.322-23.378t-21.195-8.478q-13.358 0-21.323 8.478t-7.964 23.378v70.649q0 2.569-1.798 4.367t-4.368 1.799zm160.566 0q-2.57 0-4.368-1.799t-1.798-4.367V83.472q0-2.57 1.798-4.368t4.368-1.798h21.323q2.569 0 4.367 1.798t1.799 4.368v170.071q0 2.569-1.799 4.367t-4.367 1.799z" style="fill:#231f20;fill-rule:nonzero"/><path d="M695.805 259.709q-2.57 0-4.368-1.799t-1.798-4.367V132.284q0-2.57 1.798-4.368t4.368-1.798h21.066q2.57 0 4.367 1.798 1.799 1.799 1.799 4.368v10.533q6.679-8.221 17.084-13.745t25.819-5.523q15.671 0 27.232 7.065t17.855 19.91 6.294 30.829v72.19q0 2.569-1.798 4.367t-4.368 1.799h-22.607q-2.57 0-4.368-1.799t-1.798-4.367v-70.649q0-14.901-7.322-23.378t-21.195-8.478q-13.359 0-21.323 8.478t-7.964 23.378v70.649q0 2.569-1.798 4.367t-4.368 1.799zm211.69 2.569q-28.517 0-45.215-16.442-16.7-16.442-17.984-46.757-.257-2.569-.257-6.551t.257-6.294q1.028-19.525 8.863-33.526 7.836-14.002 21.709-21.581t32.627-7.578q20.81 0 34.939 8.606t21.323 23.892q7.194 15.287 7.194 35.325v5.395q0 2.569-1.799 4.367t-4.624 1.799h-85.293v2.055q.258 8.992 3.469 16.57 3.21 7.579 9.505 12.203 6.294 4.625 15.029 4.625 7.193 0 12.075-2.184 4.88-2.184 7.964-5.01 3.083-2.826 4.367-4.624 2.312-3.083 3.725-3.725t4.239-.642h22.094q2.57 0 4.239 1.541 1.67 1.542 1.413 3.854-.256 4.11-4.239 10.019t-11.432 11.561q-7.45 5.652-18.626 9.377-11.175 3.725-25.562 3.725m-28.26-80.925h56.776v-.771q0-10.02-3.339-17.598-3.34-7.58-9.763-11.818-6.423-4.239-15.414-4.239-8.993 0-15.414 4.239-6.424 4.239-9.634 11.818-3.212 7.578-3.212 17.598zm178.805 78.356q-15.415 0-25.948-5.395t-15.671-16.057q-5.139-10.662-5.138-26.59V153.35h-20.296q-2.569 0-4.367-1.799t-1.799-4.624v-14.643q0-2.57 1.799-4.368t4.367-1.798h20.296V83.472q0-2.57 1.67-4.368t4.495-1.798h20.81q2.569 0 4.367 1.798t1.799 4.368v42.646h32.113q2.568 0 4.367 1.798t1.798 4.368v14.643q0 2.826-1.798 4.624-1.799 1.799-4.367 1.799h-32.113v55.748q0 10.533 3.725 16.442t12.973 5.909h17.727q2.569 0 4.367 1.798t1.799 4.368v15.928q0 2.569-1.799 4.367t-4.367 1.799z" style="fill:#74aa00;fill-rule:nonzero"/><path d="M489.774 297.042q.618 0 1.069.45t.45 1.069v5.963q0 .618-.45 1.068t-1.069.45h-16.819v7.707h15.694q.618 0 1.069.45t.45 1.068v5.963q0 .618-.45 1.069t-1.069.45h-15.694v12.15q0 .618-.45 1.068t-1.069.45h-7.368a1.46 1.46 0 0 1-1.069-.45q-.45-.45-.45-1.068v-36.338q0-.618.45-1.069t1.069-.45zm52.706-.562q5.345 0 9.225 2.025 3.882 2.025 5.991 5.484t2.334 7.735q.113 1.575.113 5.062 0 3.432-.113 4.95-.225 4.275-2.334 7.735t-5.991 5.484q-3.88 2.025-9.225 2.025-5.343 0-9.225-2.025-3.88-2.025-5.99-5.484t-2.335-7.735a139 139 0 0 1-.112-4.95q0-1.912.112-5.062.225-4.275 2.335-7.735t5.99-5.484q3.882-2.025 9.225-2.025m7.144 15.525q-.282-2.982-2.053-4.753-1.771-1.772-5.091-1.772-3.318 0-5.09 1.772-1.772 1.771-2.054 4.753-.168 1.856-.168 4.669 0 2.756.168 4.781.282 2.981 2.054 4.753t5.09 1.772q3.32 0 5.091-1.772t2.053-4.753q.168-2.025.169-4.781 0-2.813-.169-4.669m78.244-14.963q.618 0 1.068.45t.45 1.069v22.444q0 5.062-2.137 8.662t-5.991 5.457q-3.852 1.856-8.972 1.856-5.175 0-9.028-1.856t-5.962-5.457q-2.11-3.6-2.11-8.662v-22.444q0-.618.45-1.069t1.069-.45h7.369q.619 0 1.069.45t.45 1.069v22.219q0 3.43 1.715 5.316 1.716 1.884 4.978 1.884 3.263 0 4.979-1.884 1.715-1.886 1.715-5.316v-22.219q0-.618.45-1.069t1.069-.45zm63.562 39.375q-.843 0-1.462-.421-.62-.423-.844-.872l-12.881-19.238v19.013q0 .618-.45 1.068t-1.069.45h-7.369q-.619 0-1.069-.45t-.45-1.068v-36.338q0-.618.45-1.069t1.069-.45h5.85q.844 0 1.463.422.618.423.843.872l12.882 19.238v-19.013q0-.618.45-1.069t1.068-.45h7.369q.62 0 1.069.45.45.45.45 1.069v36.338q0 .618-.45 1.068t-1.069.45zm77.4-23.681q.113 3.15.113 4.05t-.113 3.938q-.168 4.612-2.39 8.156-2.222 3.543-6.104 5.541-3.88 1.996-9 1.996h-15.187a1.46 1.46 0 0 1-1.069-.45q-.45-.45-.45-1.068v-36.338q0-.618.45-1.069t1.069-.45h14.906q5.12 0 9.085 1.997t6.243 5.569 2.447 8.128m-23.794-6.694v21.375h6.019q7.087 0 7.369-6.468.112-3.263.112-4.275 0-1.125-.112-4.163-.17-3.206-2.109-4.837-1.941-1.632-5.541-1.632zm90.9 28.294q.225.562.225.844 0 .506-.365.872a1.2 1.2 0 0 1-.872.365h-7.088q-.956 0-1.49-.421-.534-.423-.703-.985l-1.575-4.669h-14.963l-1.575 4.669q-.168.562-.703.985-.534.421-1.491.421h-7.087q-.507 0-.872-.365a1.2 1.2 0 0 1-.366-.872q0-.282.225-.844l12.263-35.437q.28-.788.9-1.322.618-.534 1.631-.535h9.113q1.012 0 1.631.535.618.534.9 1.322zm-14.793-12.712-4.557-13.5-4.556 13.5zm77.456-24.582q.619 0 1.069.45t.45 1.069v5.963q0 .618-.45 1.068t-1.069.45h-9.9v28.857q0 .618-.45 1.068t-1.069.45h-7.369a1.46 1.46 0 0 1-1.068-.45q-.45-.45-.45-1.068v-28.857h-9.9a1.46 1.46 0 0 1-1.069-.45q-.45-.45-.45-1.068v-5.963q0-.619.45-1.069t1.069-.45zm37.069 39.375a1.46 1.46 0 0 1-1.069-.45q-.45-.45-.45-1.068v-36.338q0-.618.45-1.069t1.069-.45h7.368q.62 0 1.069.45.45.45.45 1.069v36.338q0 .618-.45 1.068t-1.069.45zm61.987-39.937q5.344 0 9.225 2.025 3.882 2.025 5.991 5.484t2.334 7.735q.113 1.575.113 5.062 0 3.432-.113 4.95-.225 4.275-2.334 7.735t-5.991 5.484q-3.88 2.025-9.225 2.025-5.343 0-9.225-2.025-3.88-2.025-5.99-5.484t-2.335-7.735a139 139 0 0 1-.112-4.95q0-1.912.112-5.062.225-4.275 2.335-7.735t5.99-5.484q3.882-2.025 9.225-2.025m7.144 15.525q-.282-2.982-2.053-4.753-1.772-1.772-5.091-1.772t-5.09 1.772q-1.773 1.771-2.054 4.753-.168 1.856-.168 4.669 0 2.756.168 4.781.281 2.981 2.054 4.753t5.09 1.772q3.32 0 5.091-1.772t2.053-4.753q.168-2.025.169-4.781 0-2.813-.169-4.669m71.551 24.412q-.844 0-1.463-.421-.618-.423-.843-.872l-12.882-19.238v19.013q0 .618-.45 1.068t-1.068.45h-7.369a1.46 1.46 0 0 1-1.069-.45q-.45-.45-.45-1.068v-36.338q0-.618.45-1.069t1.069-.45h5.85q.843 0 1.462.422.62.423.844.872l12.881 19.238v-19.013q0-.618.45-1.069t1.069-.45h7.369q.619 0 1.069.45t.45 1.069v36.338q0 .618-.45 1.068t-1.069.45z" style="fill:#231f20;fill-rule:nonzero"/></svg>